HIERARCHY
ROOT newVegas:Hips
{
	OFFSET 0.000000 96.479958 0.000000
	CHANNELS 6 Xposition Yposition Zposition Xrotation Yrotation Zrotation
	JOINT newVegas:Pelvis
	{
		OFFSET 0.000000 0.000000 0.000000
		CHANNELS 3 Xrotation Yrotation Zrotation
		JOINT newVegas:LeftUpLeg
		{
			OFFSET 18.735201 -5.666702 -4.541200
			CHANNELS 3 Xrotation Yrotation Zrotation
			JOINT newVegas:LeftLeg
			{
				OFFSET -0.021200 -31.938179 0.493100
				CHANNELS 3 Xrotation Yrotation Zrotation
				JOINT newVegas:LeftFoot
				{
					OFFSET 0.021200 -31.938179 -4.336299
					CHANNELS 3 Xrotation Yrotation Zrotation
					JOINT newVegas:LeftToeBase
					{
						OFFSET 0.943001 -26.722000 15.023500
						CHANNELS 3 Xrotation Yrotation Zrotation
						End Site
						{
							OFFSET 0.000000 30.670183 0.000000
						}
					}
				}
				JOINT newVegas:Left_PantLeg
				{
					OFFSET 0.663870 -9.044666 -1.108900
					CHANNELS 3 Xrotation Yrotation Zrotation
					End Site
					{
						OFFSET 1.415995 20.635357 0.000000
					}
				}
			}
		}
		JOINT newVegas:RightUpLeg
		{
			OFFSET -18.735201 -5.666702 -4.541200
			CHANNELS 3 Xrotation Yrotation Zrotation
			JOINT newVegas:RightLeg
			{
				OFFSET 0.018946 -31.938133 0.493100
				CHANNELS 3 Xrotation Yrotation Zrotation
				JOINT newVegas:RightFoot
				{
					OFFSET -0.018946 -31.938126 -4.336299
					CHANNELS 3 Xrotation Yrotation Zrotation
					JOINT newVegas:RightToeBase
					{
						OFFSET -0.943001 -26.722004 15.023500
						CHANNELS 3 Xrotation Yrotation Zrotation
						End Site
						{
							OFFSET 0.000000 30.670187 0.000000
						}
					}
				}
				JOINT newVegas:Right_PantLeg
				{
					OFFSET -0.661674 -9.044716 -1.108900
					CHANNELS 3 Xrotation Yrotation Zrotation
					End Site
					{
						OFFSET -1.415958 20.635269 0.000000
					}
				}
			}
		}
	}
	JOINT newVegas:Spine
	{
		OFFSET 0.000000 10.199997 -0.299500
		CHANNELS 3 Xrotation Yrotation Zrotation
		JOINT newVegas:Spine1
		{
			OFFSET 0.000000 11.900002 -1.516600
			CHANNELS 3 Xrotation Yrotation Zrotation
			JOINT newVegas:Spine2
			{
				OFFSET 0.000000 13.600006 -2.842500
				CHANNELS 3 Xrotation Yrotation Zrotation
				JOINT newVegas:Neck
				{
					OFFSET 0.000000 9.624100 -2.890100
					CHANNELS 3 Xrotation Yrotation Zrotation
					JOINT newVegas:Head
					{
						OFFSET 0.000000 14.068802 -1.351900
						CHANNELS 3 Xrotation Yrotation Zrotation
						JOINT newVegas:Hair_Back
						{
							OFFSET 0.000000 3.231903 -17.524799
							CHANNELS 3 Xrotation Yrotation Zrotation
							End Site
							{
								OFFSET 0.000000 19.849884 0.000000
							}
						}
						JOINT newVegas:Hair_Front
						{
							OFFSET 0.000000 31.260406 4.573800
							CHANNELS 3 Xrotation Yrotation Zrotation
							JOINT newVegas:Hair_Front1
							{
								OFFSET 0.000000 2.284103 11.993300
								CHANNELS 3 Xrotation Yrotation Zrotation
								JOINT newVegas:Hair_Front2
								{
									OFFSET 0.000000 2.284103 11.993300
									CHANNELS 3 Xrotation Yrotation Zrotation
									End Site
									{
										OFFSET 0.000000 12.208862 0.000000
									}
								}
							}
						}
						JOINT newVegas:Jowel
						{
							OFFSET 0.000000 -7.458206 6.864100
							CHANNELS 3 Xrotation Yrotation Zrotation
							End Site
							{
								OFFSET 0.000000 19.849884 0.000000
							}
						}
					}
				}
				JOINT newVegas:LeftShoulder
				{
					OFFSET 15.263000 10.923401 -0.547700
					CHANNELS 3 Xrotation Yrotation Zrotation
					JOINT newVegas:LeftArm
					{
						OFFSET 25.438599 -2.830597 -13.032500
						CHANNELS 3 Xrotation Yrotation Zrotation
						JOINT newVegas:LeftForeArm
						{
							OFFSET 29.960503 0.000000 0.000000
							CHANNELS 3 Xrotation Yrotation Zrotation
							JOINT newVegas:LeftHand
							{
								OFFSET 27.849251 0.000000 0.000000
								CHANNELS 3 Xrotation Yrotation Zrotation
								JOINT newVegas:LeftHandThumb1
								{
									OFFSET 4.487587 -3.305161 6.305391
									CHANNELS 3 Xrotation Yrotation Zrotation
									JOINT newVegas:LeftHandThumb2
									{
										OFFSET 5.480453 -3.164139 3.164143
										CHANNELS 3 Xrotation Yrotation Zrotation
										JOINT newVegas:LeftHandThumb3
										{
											OFFSET 5.159721 -2.978973 2.978967
											CHANNELS 3 Xrotation Yrotation Zrotation
											End Site
											{
												OFFSET 2.494507 5.926697 1.738678
											}
										}
									}
								}
								JOINT newVegas:LeftHandIndex1
								{
									OFFSET 18.578728 -0.527832 5.208049
									CHANNELS 3 Xrotation Yrotation Zrotation
									JOINT newVegas:LeftHandIndex2
									{
										OFFSET 3.192009 0.000000 0.000000
										CHANNELS 3 Xrotation Yrotation Zrotation
										JOINT newVegas:LeftHandIndex3
										{
											OFFSET 3.835129 0.000000 0.000000
											CHANNELS 3 Xrotation Yrotation Zrotation
											End Site
											{
												OFFSET -0.034599 3.816971 0.371180
											}
										}
									}
								}
								JOINT newVegas:LeftHandMiddle1
								{
									OFFSET 18.476105 0.000000 0.000000
									CHANNELS 3 Xrotation Yrotation Zrotation
									JOINT newVegas:LeftHandMiddle2
									{
										OFFSET 3.324875 0.000000 0.000000
										CHANNELS 3 Xrotation Yrotation Zrotation
										JOINT newVegas:LeftHandMiddle3
										{
											OFFSET 4.596550 0.000000 0.000000
											CHANNELS 3 Xrotation Yrotation Zrotation
											End Site
											{
												OFFSET 0.057701 4.578827 0.399218
											}
										}
									}
								}
								JOINT newVegas:LeftHandRing1
								{
									OFFSET 17.732719 0.121887 -4.201567
									CHANNELS 3 Xrotation Yrotation Zrotation
									JOINT newVegas:LeftHandRing2
									{
										OFFSET 2.733170 0.000000 0.000000
										CHANNELS 3 Xrotation Yrotation Zrotation
										JOINT newVegas:LeftHandRing3
										{
											OFFSET 3.178268 0.000000 0.000000
											CHANNELS 3 Xrotation Yrotation Zrotation
											End Site
											{
												OFFSET 0.119102 3.170624 0.185394
											}
										}
									}
								}
								JOINT newVegas:LeftHandPinky1
								{
									OFFSET 15.989624 -0.606689 -7.535461
									CHANNELS 3 Xrotation Yrotation Zrotation
									JOINT newVegas:LeftHandPinky2
									{
										OFFSET 2.538986 0.000000 0.000000
										CHANNELS 3 Xrotation Yrotation Zrotation
										JOINT newVegas:LeftHandPinky3
										{
											OFFSET 2.593102 0.000000 0.000000
											CHANNELS 3 Xrotation Yrotation Zrotation
											End Site
											{
												OFFSET -0.150902 2.584198 0.152708
											}
										}
									}
								}
							}
							JOINT newVegas:Left_Sleeve
							{
								OFFSET 0.267448 -0.649796 0.577675
								CHANNELS 3 Xrotation Yrotation Zrotation
								End Site
								{
									OFFSET 0.000000 15.991241 0.000000
								}
							}
							JOINT newVegas:Left_CapeC
							{
								OFFSET 15.715958 -8.608795 -6.935905
								CHANNELS 3 Xrotation Yrotation Zrotation
								JOINT newVegas:Left_CapeC1
								{
									OFFSET 0.000000 -8.688499 0.000000
									CHANNELS 3 Xrotation Yrotation Zrotation
									End Site
									{
										OFFSET 0.000000 8.688499 0.000000
									}
								}
							}
						}
						JOINT newVegas:Left_CapeB
						{
							OFFSET 26.118385 -8.608795 -7.079235
							CHANNELS 3 Xrotation Yrotation Zrotation
							JOINT newVegas:Left_CapeB1
							{
								OFFSET 0.000000 -8.688499 0.000000
								CHANNELS 3 Xrotation Yrotation Zrotation
								End Site
								{
									OFFSET 0.000000 8.688499 0.000000
								}
							}
						}
						JOINT newVegas:Left_CapeA
						{
							OFFSET 5.115639 -8.608795 -10.395809
							CHANNELS 3 Xrotation Yrotation Zrotation
							JOINT newVegas:Left_CapeA1
							{
								OFFSET 0.000000 -8.688499 0.000000
								CHANNELS 3 Xrotation Yrotation Zrotation
								End Site
								{
									OFFSET 0.000000 8.688499 0.000000
								}
							}
						}
					}
				}
				JOINT newVegas:RightShoulder
				{
					OFFSET -15.263000 10.923401 -0.547700
					CHANNELS 3 Xrotation Yrotation Zrotation
					JOINT newVegas:RightArm
					{
						OFFSET -25.438599 -2.830597 -13.032500
						CHANNELS 3 Xrotation Yrotation Zrotation
						JOINT newVegas:RightForeArm
						{
							OFFSET -29.960503 0.000000 0.000000
							CHANNELS 3 Xrotation Yrotation Zrotation
							JOINT newVegas:RightHand
							{
								OFFSET -27.849251 0.000000 0.000000
								CHANNELS 3 Xrotation Yrotation Zrotation
								JOINT newVegas:RightHandThumb1
								{
									OFFSET -4.487587 -3.305161 6.305391
									CHANNELS 3 Xrotation Yrotation Zrotation
									JOINT newVegas:RightHandThumb2
									{
										OFFSET -5.480453 -3.164139 3.164143
										CHANNELS 3 Xrotation Yrotation Zrotation
										JOINT newVegas:RightHandThumb3
										{
											OFFSET -5.159721 -2.978973 2.978967
											CHANNELS 3 Xrotation Yrotation Zrotation
											End Site
											{
												OFFSET -2.494507 5.926697 1.738678
											}
										}
									}
								}
								JOINT newVegas:RightHandIndex1
								{
									OFFSET -18.578728 -0.527832 5.208049
									CHANNELS 3 Xrotation Yrotation Zrotation
									JOINT newVegas:RightHandIndex2
									{
										OFFSET -3.192009 0.000000 0.000000
										CHANNELS 3 Xrotation Yrotation Zrotation
										JOINT newVegas:RightHandIndex3
										{
											OFFSET -3.835129 0.000000 0.000000
											CHANNELS 3 Xrotation Yrotation Zrotation
											End Site
											{
												OFFSET 0.034599 3.816971 0.371180
											}
										}
									}
								}
								JOINT newVegas:RightHandMiddle1
								{
									OFFSET -18.476105 0.000000 0.000000
									CHANNELS 3 Xrotation Yrotation Zrotation
									JOINT newVegas:RightHandMiddle2
									{
										OFFSET -3.324875 0.000000 0.000000
										CHANNELS 3 Xrotation Yrotation Zrotation
										JOINT newVegas:RightHandMiddle3
										{
											OFFSET -4.596550 0.000000 0.000000
											CHANNELS 3 Xrotation Yrotation Zrotation
											End Site
											{
												OFFSET -0.057701 4.578827 0.399218
											}
										}
									}
								}
								JOINT newVegas:RightHandRing1
								{
									OFFSET -17.732719 0.121887 -4.201567
									CHANNELS 3 Xrotation Yrotation Zrotation
									JOINT newVegas:RightHandRing2
									{
										OFFSET -2.733170 0.000000 0.000000
										CHANNELS 3 Xrotation Yrotation Zrotation
										JOINT newVegas:RightHandRing3
										{
											OFFSET -3.178268 0.000000 0.000000
											CHANNELS 3 Xrotation Yrotation Zrotation
											End Site
											{
												OFFSET -0.119102 3.170624 0.185394
											}
										}
									}
								}
								JOINT newVegas:RightHandPinky1
								{
									OFFSET -15.989624 -0.606689 -7.535461
									CHANNELS 3 Xrotation Yrotation Zrotation
									JOINT newVegas:RightHandPinky2
									{
										OFFSET -2.538986 0.000000 0.000000
										CHANNELS 3 Xrotation Yrotation Zrotation
										JOINT newVegas:RightHandPinky3
										{
											OFFSET -2.593102 0.000000 0.000000
											CHANNELS 3 Xrotation Yrotation Zrotation
											End Site
											{
												OFFSET 0.150902 2.584198 0.152708
											}
										}
									}
								}
							}
							JOINT newVegas:Right_CapeC
							{
								OFFSET -15.715958 -8.608795 -6.935905
								CHANNELS 3 Xrotation Yrotation Zrotation
								JOINT newVegas:Right_CapeC1
								{
									OFFSET 0.000000 -8.688499 0.000000
									CHANNELS 3 Xrotation Yrotation Zrotation
									End Site
									{
										OFFSET 0.000000 8.688499 0.000000
									}
								}
							}
							JOINT newVegas:Right_Sleeve
							{
								OFFSET -0.267448 -0.649994 0.577675
								CHANNELS 3 Xrotation Yrotation Zrotation
								End Site
								{
									OFFSET 0.000000 15.991302 0.000000
								}
							}
						}
						JOINT newVegas:Right_CapeA
						{
							OFFSET -5.115540 -8.608795 -10.395824
							CHANNELS 3 Xrotation Yrotation Zrotation
							JOINT newVegas:Right_CapeA1
							{
								OFFSET 0.000000 -8.688499 0.000000
								CHANNELS 3 Xrotation Yrotation Zrotation
								End Site
								{
									OFFSET 0.000000 8.688499 0.000000
								}
							}
						}
						JOINT newVegas:Right_CapeB
						{
							OFFSET -26.118187 -8.608795 -7.079266
							CHANNELS 3 Xrotation Yrotation Zrotation
							JOINT newVegas:Right_CapeB1
							{
								OFFSET 0.000000 -8.688499 0.000000
								CHANNELS 3 Xrotation Yrotation Zrotation
								End Site
								{
									OFFSET 0.000000 8.688499 0.000000
								}
							}
						}
					}
				}
				JOINT newVegas:Left_Collar
				{
					OFFSET 18.625099 8.655502 8.828100
					CHANNELS 3 Xrotation Yrotation Zrotation
					JOINT newVegas:Left_Collar1
					{
						OFFSET 14.783401 10.540405 -1.259500
						CHANNELS 3 Xrotation Yrotation Zrotation
						End Site
						{
							OFFSET 0.000000 18.199875 0.000000
						}
					}
				}
				JOINT newVegas:Collar_Back
				{
					OFFSET 0.000000 15.630707 -20.132601
					CHANNELS 3 Xrotation Yrotation Zrotation
					End Site
					{
						OFFSET 0.000000 22.523010 0.000000
					}
				}
				JOINT newVegas:Left_Peck
				{
					OFFSET 17.239599 -5.132599 25.482599
					CHANNELS 3 Xrotation Yrotation Zrotation
					End Site
					{
						OFFSET 0.000000 22.523010 0.000000
					}
				}
				JOINT newVegas:Right_Peck
				{
					OFFSET -17.239599 -5.132202 25.482599
					CHANNELS 3 Xrotation Yrotation Zrotation
					End Site
					{
						OFFSET 0.000000 22.523010 0.000000
					}
				}
				JOINT newVegas:Right_Collar
				{
					OFFSET -18.625099 8.655792 8.828100
					CHANNELS 3 Xrotation Yrotation Zrotation
					JOINT newVegas:Right_Collar1
					{
						OFFSET -14.783401 10.539993 -1.259500
						CHANNELS 3 Xrotation Yrotation Zrotation
						End Site
						{
							OFFSET 0.000000 18.199631 0.000000
						}
					}
				}
			}
		}
		JOINT newVegas:Belly
		{
			OFFSET 0.000000 -6.540398 9.014299
			CHANNELS 3 Xrotation Yrotation Zrotation
			End Site
			{
				OFFSET 0.000000 11.566666 0.000000
			}
		}
	}
	JOINT newVegas:ElvisFacialAnim_Joint
	{
		OFFSET 1.000000 -95.330101 -8.825800
		CHANNELS 3 Xrotation Yrotation Zrotation
		End Site
		{
			OFFSET 0.000000 35.315800 0.000000
		}
	}
}
MOTION
Frames: 4
Frame Time: 0.033333
-25.963444 48.071362 -13.298050 -36.733693 14.937327 -28.909872 -0.000002 -0.000000 0.000002 -62.088120 39.008559 11.634657 93.518602 4.049016 -7.552549 0.898344 -3.906447 40.240336 -0.000000 0.000000 -0.000001 -0.000000 0.000000 -0.000000 -62.916199 -20.232716 -12.662745 118.290339 -1.399682 -6.274742 18.076651 -1.228732 21.342104 -0.000002 -0.000000 -0.000001 0.000002 0.000001 0.000000 67.119798 7.041975 -7.779073 9.051597 -0.424265 -19.682862 10.818391 -6.361454 -36.140167 -0.922425 -0.181768 -0.072813 -0.922447 -0.181764 -0.072788 -0.000001 -0.000003 0.000001 -0.922390 -0.181740 -0.072803 -0.922438 -0.181817 -0.072780 -0.000000 -0.000003 0.000001 -0.000001 -0.000003 0.000001 15.310818 7.934606 0.288521 -80.942994 -36.861520 -53.861577 -0.000001 -16.276940 -0.000004 -16.248713 -0.321086 73.801929 -6.002188 -6.126386 4.616530 2.285139 5.979048 0.653603 0.000000 0.000000 0.000001 7.275531 -11.625290 29.771046 -0.000005 0.000004 0.000001 -0.000003 0.000001 -0.000001 3.168755 -3.816607 35.894461 0.000090 0.032703 -0.319153 -0.000002 0.000005 0.000000 1.169053 -1.080703 38.658027 0.000157 0.043273 -0.422121 0.000001 -0.000001 0.000001 -14.919677 3.132777 38.556742 0.007445 0.295489 -2.884821 -0.000000 -0.000002 -0.000000 -0.000001 -0.000001 -0.000002 -0.000001 -0.000001 -0.000002 -0.000002 -0.000001 -0.000002 -0.000001 0.000001 0.000000 -0.000001 0.000001 0.000000 -0.000001 0.000001 0.000000 -0.000001 0.000001 -0.000000 19.956706 30.540392 -26.981204 -136.054035 19.721355 51.448301 0.000001 40.468471 -0.000006 60.638221 -12.949660 33.802992 -21.122816 16.618745 -12.008969 41.391851 -25.121487 58.207207 -0.000001 -0.000003 0.000001 16.542653 20.690151 -2.753912 1.904382 -3.757965 53.735666 0.000001 -0.000004 0.000005 1.166995 0.767019 -36.740376 3.098598 -4.389171 70.428157 0.000000 0.000001 -0.000001 -2.933708 -8.207474 -23.829888 3.026480 -4.362930 69.482961 -0.000002 0.000002 -0.000001 -18.675945 -10.271305 -19.159939 2.241920 -3.983094 58.733097 -0.000001 0.000002 -0.000000 -0.000000 0.000001 -0.000001 -0.000000 -0.000000 -0.000001 -0.000000 0.000001 -0.000001 -0.000000 -0.000001 -0.000002 -0.000000 0.000000 -0.000004 -0.000000 -0.000001 -0.000002 0.000000 -0.000000 -0.000002 -0.000001 0.000000 -0.000000 -0.000001 0.000000 -0.000000 -0.000001 0.000000 -0.000000 -0.000001 0.000000 -0.000000 -0.000001 0.000000 -0.000000 -0.000001 0.000000 -0.000000 -0.000001 0.000000 -0.000000 -0.000000 0.000000 0.000000 -0.000002 -0.000000 0.000002 
-25.507832 45.410427 -9.568565 -45.345117 13.902138 -23.813497 -0.000000 0.000003 -0.000003 -64.025633 39.867531 12.564814 88.778143 1.345069 -6.563587 13.788227 0.016047 39.757681 -0.000000 0.000000 0.000001 0.000001 -0.000000 0.000001 -66.610580 -21.238113 -14.950331 124.677645 -10.950655 -7.341834 23.077939 -1.952398 13.311211 -0.000002 0.000002 -0.000003 0.000000 -0.000001 0.000000 68.377632 6.900449 -8.041747 9.069830 -0.249974 -20.711927 11.042226 -6.197449 -35.699602 -0.336172 -0.137114 -0.024022 -0.336176 -0.137111 -0.024019 -0.000001 -0.000001 -0.000000 -0.336191 -0.137153 -0.024027 -0.336164 -0.137075 -0.024059 -0.000002 0.000000 0.000000 -0.000001 -0.000001 -0.000000 14.314873 12.515289 0.538549 -75.485611 -35.017994 -57.220111 0.000004 -15.921016 0.000006 -18.644948 -0.804443 74.956279 -6.002185 -6.126363 4.616521 2.285138 5.979051 0.653607 0.000003 0.000002 -0.000004 7.275527 -11.625277 29.771036 -0.000000 -0.000002 -0.000009 -0.000001 0.000002 -0.000001 3.168753 -3.816594 35.894454 0.000092 0.032693 -0.319155 0.000001 0.000001 -0.000000 1.169055 -1.080697 38.658020 0.000161 0.043250 -0.422122 0.000001 -0.000004 0.000001 -14.919679 3.132782 38.556746 0.007447 0.295497 -2.884818 -0.000000 -0.000005 -0.000001 -0.000002 -0.000003 0.000000 -0.000002 -0.000003 0.000000 -0.000003 -0.000002 0.000000 -0.000001 0.000001 0.000003 -0.000001 0.000000 0.000003 -0.000001 0.000001 0.000003 -0.000001 -0.000000 0.000003 19.542339 29.710695 -26.451494 -134.122663 14.023055 46.661465 -0.000001 52.628380 -0.000002 53.076215 -15.183447 26.657834 -24.347869 17.091567 -11.096398 38.554963 -24.589173 53.507985 0.000000 -0.000002 -0.000001 16.460703 19.741315 -2.730488 1.938336 -3.782575 54.252131 -0.000001 -0.000001 0.000001 1.086309 0.712646 -32.251665 3.135960 -4.402220 70.915641 -0.000001 0.000001 -0.000000 -1.973422 -7.249273 -19.660413 3.003060 -4.354112 69.174660 0.000002 0.000001 -0.000002 -18.023098 -10.311506 -16.583349 2.313190 -4.025410 59.753767 0.000000 0.000003 0.000003 -0.000002 0.000001 0.000001 -0.000001 0.000001 0.000000 -0.000002 0.000001 -0.000000 0.000000 0.000001 -0.000000 0.000001 0.000002 -0.000002 0.000000 0.000001 -0.000000 0.000001 0.000002 -0.000002 -0.000000 0.000001 0.000001 -0.000000 0.000001 0.000001 -0.000000 0.000001 0.000001 -0.000000 0.000001 0.000001 -0.000000 0.000001 0.000001 -0.000000 0.000001 0.000001 -0.000000 0.000001 0.000001 -0.000000 -0.000000 -0.000001 -0.000000 0.000003 -0.000003 
-23.751837 43.621037 -7.615135 -51.527579 11.256857 -18.795970 0.000001 0.000000 -0.000002 -68.570380 32.227462 13.962145 80.758736 2.107409 -6.095003 14.530823 6.311829 35.664526 -0.000001 0.000000 -0.000001 -0.000001 0.000000 0.000001 -66.733796 -10.564681 -18.243857 133.532343 -8.791778 -6.825859 18.716972 -2.434676 13.034818 -0.000004 0.000001 -0.000001 -0.000001 -0.000002 0.000000 68.041743 6.283466 -8.512681 8.840240 -0.118727 -21.783954 11.057451 -6.029683 -34.701254 0.095808 -0.102432 -0.036050 0.095819 -0.102432 -0.036057 0.000001 -0.000001 0.000000 0.095835 -0.102448 -0.036032 0.095785 -0.102370 -0.036059 0.000002 -0.000001 0.000000 0.000001 -0.000001 0.000000 12.219831 16.636075 4.467058 -70.681605 -31.538197 -63.450183 0.000007 -11.807246 0.000009 -21.414557 -3.742191 75.594942 -6.002186 -6.126370 4.616532 2.285132 5.979058 0.653613 0.000001 -0.000003 -0.000005 7.275537 -11.625281 29.771046 -0.000002 0.000004 0.000002 0.000000 -0.000000 -0.000002 3.168757 -3.816602 35.894464 0.000090 0.032708 -0.319153 0.000000 0.000006 0.000000 1.169046 -1.080697 38.658024 0.000156 0.043259 -0.422125 0.000001 -0.000001 0.000001 -14.919679 3.132790 38.556753 0.007443 0.295494 -2.884824 0.000000 -0.000003 0.000001 0.000001 0.000002 0.000001 0.000001 0.000002 0.000001 0.000000 0.000002 0.000000 -0.000001 0.000000 0.000001 -0.000001 -0.000001 0.000003 -0.000001 0.000000 0.000001 -0.000001 -0.000000 0.000000 18.768544 30.298576 -24.413726 -132.203325 13.347804 42.402651 -0.000000 55.631782 0.000004 43.355141 -15.512662 18.683593 -27.886440 17.387355 -10.057799 35.136276 -23.746121 48.246387 0.000004 0.000001 -0.000000 16.431173 18.727766 -2.863323 1.923484 -3.771874 54.026790 -0.000000 -0.000000 0.000000 0.941302 0.602891 -26.631746 3.100679 -4.389889 70.455416 -0.000001 0.000000 0.000001 -1.116638 -6.204819 -14.697233 2.895005 -4.311589 67.744555 -0.000003 -0.000003 -0.000002 -17.259755 -10.704097 -13.732248 2.348088 -4.045488 60.249645 -0.000002 -0.000000 0.000002 -0.000000 0.000002 0.000000 -0.000001 -0.000000 0.000000 -0.000000 0.000001 0.000000 -0.000001 0.000000 0.000001 -0.000001 0.000001 0.000001 -0.000001 0.000000 0.000001 -0.000001 0.000001 0.000001 0.000003 0.000000 0.000000 0.000003 0.000000 0.000000 0.000003 0.000000 0.000000 0.000003 0.000000 0.000000 0.000003 0.000000 0.000000 0.000003 0.000000 0.000000 0.000003 0.000000 0.000000 -0.000001 0.000000 -0.000002 0.000001 0.000000 -0.000002 
-22.379930 41.717888 -5.657356 -55.983816 8.540066 -15.118359 0.000004 -0.000001 0.000000 -57.483746 17.460795 10.686172 47.447282 8.243618 -7.835529 22.009532 12.772951 35.806853 0.000002 0.000001 -0.000000 0.000001 -0.000000 -0.000000 -66.542906 3.540295 -19.132927 141.376364 -1.411539 -5.631491 15.740985 -2.464944 15.327385 -0.000002 -0.000001 0.000001 -0.000000 -0.000001 0.000000 66.950354 5.498121 -8.554159 8.574689 -0.001319 -22.439062 11.045463 -5.791231 -32.963179 0.296770 -0.064626 -0.070505 0.296771 -0.064622 -0.070520 0.000000 0.000000 0.000000 0.296791 -0.064664 -0.070489 0.296771 -0.064598 -0.070508 -0.000001 0.000000 -0.000000 0.000000 0.000000 0.000000 8.395659 18.174643 10.014378 -62.003419 -26.031984 -68.454970 -0.000007 -10.632313 0.000003 -24.538201 -6.011454 76.431627 -6.002197 -6.126357 4.616519 2.285136 5.979037 0.653617 -0.000002 -0.000001 -0.000001 7.275533 -11.625282 29.771039 -0.000004 -0.000001 0.000003 -0.000000 -0.000000 0.000001 3.168763 -3.816600 35.894458 0.000092 0.032702 -0.319153 0.000000 0.000004 0.000001 1.169051 -1.080693 38.658024 0.000155 0.043266 -0.422119 0.000001 0.000001 0.000002 -14.919689 3.132790 38.556742 0.007447 0.295495 -2.884822 -0.000000 -0.000005 -0.000003 -0.000000 0.000001 0.000002 -0.000000 0.000001 0.000002 -0.000001 0.000002 0.000001 0.000000 0.000001 0.000001 0.000000 0.000000 -0.000001 0.000000 0.000001 0.000001 0.000000 -0.000000 -0.000000 15.697962 31.287645 -16.164515 -125.783780 19.906255 41.337193 0.000001 54.127555 -0.000001 29.917936 -12.534877 9.610639 -31.540014 17.481046 -8.932477 31.170736 -22.501937 42.648391 -0.000000 -0.000001 -0.000002 16.473965 17.706804 -3.208940 1.848937 -3.716756 52.885239 0.000001 0.000001 0.000001 0.758389 0.451697 -20.627371 2.988441 -4.348550 68.982349 0.000000 0.000001 0.000001 -0.494705 -5.146177 -9.631555 2.706277 -4.229671 65.210623 -0.000003 -0.000004 -0.000002 -14.187383 -11.712438 -10.985395 2.360086 -4.052326 60.419389 -0.000001 0.000008 0.000003 0.000000 0.000000 -0.000000 -0.000000 0.000000 -0.000001 0.000000 0.000000 -0.000000 -0.000000 0.000000 0.000000 -0.000000 0.000001 0.000000 -0.000000 0.000000 0.000000 -0.000000 0.000001 0.000000 -0.000000 -0.000000 -0.000000 -0.000000 -0.000000 -0.000000 -0.000000 -0.000000 -0.000000 -0.000000 -0.000000 -0.000000 -0.000000 -0.000000 -0.000000 -0.000000 -0.000000 -0.000000 -0.000000 -0.000000 -0.000000 0.000001 0.000000 0.000001 0.000004 -0.000001 0.000000 
